<svg xmlns="http://www.w3.org/2000/svg" fill="none" viewBox="12.82 26.31 200.15 54.58"><path d="M136.202 71.4103C135.848 71.2778 135.583 71.4986 135.495 71.7193C135.45 71.8076 135.318 72.0284 135.229 72.1167C134.654 72.8231 133.903 73.3087 132.974 73.6178C132.797 73.6619 132.311 73.7944 132.311 73.7944C132.311 73.7944 132.311 73.6619 132.399 73.4853C132.664 72.7348 133.062 72.0725 133.239 71.3661C133.239 71.3661 133.239 71.2778 133.283 71.2778C133.283 71.2337 133.283 71.1895 133.328 71.1454C133.549 70.5714 133.549 70.5273 133.549 70.3507C133.549 70.1741 133.505 70.0416 133.372 69.9092C133.062 69.6001 132.62 69.6884 132.399 70.0416C131.736 70.9246 131.382 71.3661 130.895 71.8959C130.276 72.6465 129.215 73.8385 128.507 74.1034C128.286 74.1917 128.286 74.1034 128.286 73.7061C128.286 72.6906 128.861 70.8805 129.436 70.1299C129.878 69.556 129.038 68.8937 128.552 69.3794C128.154 69.7326 127.844 70.4831 127.623 71.1012C127.269 72.0725 127.092 72.9997 127.092 73.7061C127.092 74.4125 127.358 75.1189 128.065 75.2513C127.579 75.6045 127.004 76.1343 126.65 76.6199C126.429 76.929 126.296 77.2822 126.208 77.6354C125.987 78.5625 126.385 79.3572 126.915 79.7104C127.358 79.9753 127.844 79.9753 128.375 79.7104C128.95 79.4897 129.348 79.1365 129.746 78.6067C130.099 78.2093 130.365 77.7678 130.763 77.0614C130.851 76.929 131.161 76.3109 131.161 76.3109C131.161 76.3109 131.161 76.2667 131.205 76.2226C131.293 76.046 131.603 75.2954 131.691 75.0747V75.0306C132.709 74.8098 133.328 74.6332 133.947 74.3683C134.831 73.971 135.671 73.2646 136.202 72.514C136.335 72.2933 136.423 72.1608 136.467 72.0284C136.556 71.6752 136.335 71.4103 136.069 71.3661M128.861 78.0327C128.596 78.3418 128.242 78.695 127.844 78.7833C127.756 78.7833 127.667 78.7833 127.623 78.7833C127.402 78.695 127.269 78.2976 127.358 77.9886C127.402 77.7237 127.579 77.4146 127.756 77.1939C128.419 76.355 129.215 75.9135 130.321 75.5162C129.923 76.355 129.392 77.4146 128.861 78.0327ZM130.984 74.0151C130.984 74.1034 130.984 74.1034 130.94 74.1034C130.895 74.1034 130.542 74.2359 130.232 74.3242C130.542 74.0593 130.895 73.6619 131.205 73.3529C131.117 73.5736 131.072 73.8385 130.984 74.0151Z" fill="#4241FF"></path><path d="M142.659 72.1602C142.349 72.0719 142.128 72.2485 142.04 72.4251C142.04 72.4251 141.996 72.4692 141.951 72.5134C141.288 72.999 140.404 73.3081 139.342 73.3522C139.121 73.3522 139.121 73.3522 139.121 73.3522C139.298 72.9549 139.519 72.3809 139.563 72.0277C139.74 70.6591 138.9 70.041 137.573 70.35C137.485 70.3059 137.352 70.2617 137.22 70.2617C137.087 70.2617 137.043 70.2617 136.954 70.2617C136.777 70.3059 136.512 70.4825 136.291 70.6591C136.114 70.8357 135.893 71.1006 135.716 71.2772C135.539 71.4538 135.539 71.4979 135.451 71.6745C135.009 72.3368 134.566 73.3081 134.478 74.1469C134.345 75.339 134.699 76.2661 135.716 76.3544C136.291 76.3986 136.866 76.0453 137.264 75.7363C137.662 75.4272 138.06 74.9858 138.414 74.5443C138.502 74.4118 138.502 74.4118 138.546 74.4118C138.767 74.456 139.254 74.456 139.608 74.4118C140.757 74.3235 141.598 74.0586 142.394 73.573C142.703 73.3964 142.924 73.2198 143.057 73.0432C143.101 72.999 143.145 72.8666 143.19 72.7783C143.278 72.3809 143.013 72.116 142.747 72.0719M136.822 74.5443C136.468 74.8975 136.203 75.1182 135.937 75.2065C135.849 75.2065 135.76 75.2065 135.716 75.2065C135.539 75.2065 135.583 74.6767 135.583 74.4118C135.583 74.0586 135.716 73.6613 135.937 73.1756C135.937 73.0873 136.114 72.8224 136.114 72.8224C136.114 72.8224 136.114 72.8666 136.158 72.9549C136.379 73.3964 136.733 73.7496 137.175 74.0145C137.22 74.0145 137.264 74.0586 137.264 74.0586C137.264 74.0586 136.999 74.3677 136.866 74.5443M138.369 71.8511C138.325 72.1602 138.193 72.5575 138.016 72.9107C138.016 72.999 137.927 73.0432 137.927 73.0432C137.927 73.0432 137.75 72.9549 137.662 72.9107C137.352 72.69 137.087 72.3809 137.043 71.9394C137.043 71.7187 137.131 71.6745 137.308 71.5862C137.618 71.4538 137.795 71.3655 138.148 71.3655C138.502 71.3655 138.281 71.3655 138.325 71.3655C138.414 71.3655 138.414 71.6745 138.369 71.8511Z" fill="#4241FF"></path><path d="M143.631 70.3076C144.073 70.3959 144.25 70.8374 144.029 71.1906C143.499 72.3826 142.968 73.1773 142.791 74.3694C142.747 74.6343 142.658 75.0316 142.791 75.2082C142.879 75.2965 143.056 75.1641 143.233 75.0316C144.25 74.2811 145.135 73.3098 145.577 72.5592C145.931 71.9853 146.108 71.3672 146.461 70.6608C146.594 70.44 146.771 70.2634 147.081 70.3076C147.523 70.3959 147.7 70.8374 147.479 71.1906C146.948 72.3826 146.417 73.1773 146.24 74.3694C146.196 74.6343 146.108 75.0316 146.24 75.2082C146.329 75.2965 146.506 75.1641 146.683 75.0316C147.7 74.2811 148.496 73.2215 149.026 72.5592C149.292 72.0736 150.088 72.2502 150.132 72.8241C150.132 72.9566 150.132 73.0007 150.088 73.089C149.955 73.3539 149.645 73.7513 149.115 74.3252C148.407 75.1199 147.877 75.6056 147.523 75.8705C147.213 76.0912 147.036 76.1795 146.771 76.2678C145.842 76.5769 145.179 76.0029 145.091 75.2524C145.091 75.1199 145.091 74.9875 145.091 74.8992C144.648 75.3848 144.295 75.6939 143.985 75.9146C143.675 76.1354 143.499 76.2237 143.233 76.312C142.305 76.621 141.641 76.0471 141.553 75.2965C141.553 73.8396 142.393 71.6762 142.924 70.7049C143.056 70.4842 143.233 70.3076 143.543 70.3517" fill="#4241FF"></path><path d="M161.762 72.2509C161.409 72.1184 161.143 72.3392 161.055 72.5599C161.011 72.6482 160.878 72.869 160.789 72.9573C160.215 73.6637 159.463 74.1493 158.534 74.4584C158.357 74.5025 157.871 74.635 157.871 74.635C157.871 74.635 157.871 74.5025 157.959 74.3259C158.225 73.5754 158.534 72.6041 158.711 72.0301C158.844 71.6769 158.932 71.412 158.932 71.3237C159.021 70.8822 158.755 70.529 158.313 70.529C157.871 70.529 158.092 70.529 158.048 70.6173C157.915 70.4407 157.782 70.3083 157.561 70.22C157.207 70.0434 156.765 70.0875 156.367 70.22C156.013 70.3524 155.615 70.6173 155.217 71.0147C154.554 71.6769 153.802 72.8248 153.714 73.9286C153.625 74.7674 153.979 75.3414 154.731 75.3414C154.864 75.3414 154.908 75.3414 155.041 75.3414C155.704 75.1648 156.235 74.635 156.677 74.1493C156.721 74.061 156.809 74.0169 156.809 74.0169C156.809 74.0169 156.588 74.635 156.5 74.944C156.5 75.0323 156.5 75.0323 156.456 75.0323C156.367 75.0323 155.792 75.2089 155.483 75.3414C154.112 75.827 152.962 76.4893 152.255 77.593C152.033 77.9021 151.901 78.2553 151.812 78.6085C151.591 79.5356 151.989 80.3303 152.52 80.6835C152.962 80.9484 153.449 80.9484 153.979 80.6835C154.554 80.4628 154.952 80.1096 155.35 79.5798C155.704 79.1824 155.969 78.7409 156.367 78.0345C156.456 77.9021 156.765 77.284 156.765 77.284C156.765 77.284 156.765 77.2398 156.809 77.1957C156.898 77.0191 157.207 76.2685 157.296 76.0478V76.0036C158.313 75.7829 158.932 75.6063 159.551 75.3414C160.436 74.944 161.276 74.2376 161.807 73.4871C161.939 73.2663 162.028 73.1339 162.072 73.0014C162.16 72.6482 161.939 72.3833 161.674 72.3392M154.466 78.8734C154.2 79.1824 153.847 79.5356 153.449 79.6239C153.36 79.6239 153.272 79.6239 153.227 79.6239C153.006 79.5356 152.874 79.1383 152.962 78.8292C153.006 78.5643 153.183 78.2553 153.36 78.0345C154.023 77.1957 154.819 76.7542 155.925 76.3568C155.527 77.1957 154.996 78.2553 154.466 78.8734ZM157.163 71.7211C156.809 72.1626 156.588 72.4716 156.279 72.8248C155.881 73.3105 155.35 73.8844 154.952 74.1052H154.908C154.908 74.1052 154.908 74.0169 154.908 73.9286C154.952 73.6637 155.041 73.3546 155.217 73.0456C155.527 72.4275 155.969 71.8535 156.456 71.5003C156.677 71.3237 156.854 71.2354 157.031 71.2354C157.207 71.2354 157.252 71.412 157.252 71.5886C157.252 71.7652 157.252 71.5886 157.207 71.6769" fill="#4241FF"></path><path d="M168.706 72.1602C168.396 72.0719 168.175 72.2485 168.087 72.4251C168.087 72.4251 168.043 72.4692 167.998 72.5134C167.335 72.999 166.495 73.3081 165.389 73.3522C165.168 73.3522 165.168 73.3522 165.168 73.3522C165.345 72.9549 165.566 72.3809 165.61 72.0277C165.787 70.6591 164.947 70.041 163.62 70.35C163.532 70.3059 163.399 70.2617 163.267 70.2617C163.134 70.2617 163.09 70.2617 163.001 70.2617C162.824 70.3059 162.559 70.4825 162.338 70.6591C162.161 70.8357 161.94 71.1006 161.763 71.2772C161.586 71.4538 161.586 71.4979 161.498 71.6745C161.055 72.3368 160.613 73.3081 160.525 74.1469C160.392 75.339 160.746 76.2661 161.763 76.3544C162.338 76.3986 162.913 76.0453 163.311 75.7363C163.709 75.4272 164.107 74.9858 164.461 74.5443C164.549 74.4118 164.549 74.4118 164.593 74.4118C164.814 74.456 165.301 74.456 165.655 74.4118C166.804 74.3235 167.645 74.0586 168.441 73.573C168.75 73.3964 168.971 73.2198 169.104 73.0432C169.148 72.999 169.192 72.8666 169.237 72.7783C169.325 72.3809 169.06 72.116 168.794 72.0719M162.913 74.5443C162.559 74.8975 162.294 75.1182 162.028 75.2065C161.94 75.2065 161.851 75.2065 161.807 75.2065C161.63 75.2065 161.675 74.6767 161.675 74.4118C161.675 74.0586 161.807 73.6613 162.028 73.1756C162.028 73.0873 162.205 72.8224 162.205 72.8224C162.205 72.8224 162.205 72.8666 162.249 72.9549C162.471 73.3964 162.824 73.7496 163.267 74.0145C163.311 74.0145 163.355 74.0586 163.355 74.0586C163.355 74.0586 163.09 74.3677 162.913 74.5443ZM164.416 71.8511C164.372 72.1602 164.239 72.5575 164.063 72.9107C164.063 72.999 163.974 73.0432 163.974 73.0432C163.974 73.0432 163.797 72.9549 163.709 72.9107C163.399 72.69 163.134 72.3809 163.09 71.9394C163.09 71.7187 163.178 71.6745 163.355 71.5862C163.665 71.4538 163.841 71.3655 164.195 71.3655C164.549 71.3655 164.328 71.3655 164.372 71.3655C164.461 71.3655 164.461 71.6745 164.416 71.8511Z" fill="#4241FF"></path><path d="M166.451 69.116C167.424 68.8511 168.529 68.7187 169.635 68.6745C169.812 68.2772 170.033 67.8798 170.21 67.4825C170.342 67.1734 170.519 66.8644 170.917 66.9085C171.227 66.9527 171.492 67.2617 171.404 67.6149C171.404 67.6591 171.227 68.0123 171.006 68.4979C171.006 68.4979 171.006 68.5862 170.961 68.6304C171.846 68.6304 172.73 68.6745 173.482 68.7628C173.747 68.7628 173.792 68.7628 173.88 68.8511C174.057 68.9394 174.19 69.116 174.19 69.3809C174.19 69.6458 174.057 69.8224 173.88 69.9107C173.747 69.9549 173.747 69.999 173.438 69.9549C172.377 69.8224 171.359 69.7341 170.431 69.7783C169.767 71.1911 169.192 72.6039 168.883 74.0608C168.794 74.414 168.794 74.6348 168.794 74.8997C168.794 75.0763 168.794 75.0762 168.794 75.1645V75.2529C168.794 75.2529 168.927 75.2529 169.016 75.2087C169.856 74.8997 170.608 74.2374 171.315 73.531C171.757 73.0895 172.155 72.6922 172.244 72.5597C172.332 72.4273 172.553 72.2507 172.863 72.339C173.305 72.4273 173.482 72.9571 173.128 73.3544C172.951 73.5752 172.111 74.4582 171.669 74.8555C171.404 75.1204 171.006 75.4295 170.696 75.6502C170.033 76.1358 169.414 76.4007 168.971 76.489C168.131 76.5773 167.689 76.0034 167.6 75.297C167.6 75.1645 167.6 74.8114 167.6 74.6348C167.689 73.8842 167.954 72.8246 168.441 71.5001C168.618 71.0586 168.839 70.5288 169.104 69.9549C168.573 69.999 168.087 70.0873 167.6 70.1756C166.849 70.3522 166.76 70.3522 166.628 70.3081C166.141 70.2198 165.92 69.3809 166.451 69.2485" fill="#4241FF"></path><path d="M177.285 69.116C178.258 68.8511 179.363 68.7187 180.469 68.6745C180.646 68.2772 180.867 67.8798 181.044 67.4825C181.176 67.1734 181.353 66.8644 181.751 66.9085C182.061 66.9527 182.326 67.2617 182.238 67.6149C182.238 67.6591 182.061 68.0123 181.84 68.4979C181.84 68.4979 181.84 68.5862 181.795 68.6304C182.68 68.6304 183.564 68.6745 184.316 68.7628C184.581 68.7628 184.626 68.7628 184.714 68.8511C184.891 68.9394 185.024 69.116 185.024 69.3809C185.024 69.6458 184.891 69.8224 184.714 69.9107C184.581 69.9549 184.581 69.999 184.272 69.9549C183.21 69.8224 182.193 69.7341 181.265 69.7783C180.601 71.1911 180.026 72.6039 179.717 74.0608C179.628 74.414 179.628 74.6348 179.628 74.8997C179.628 75.0763 179.628 75.0762 179.628 75.1645V75.2529C179.628 75.2529 179.761 75.2529 179.85 75.2087C180.69 74.8997 181.442 74.2374 182.149 73.531C182.591 73.0895 182.989 72.6922 183.078 72.5597C183.166 72.4273 183.387 72.2507 183.697 72.339C184.139 72.4273 184.316 72.9571 183.962 73.3544C183.785 73.5752 182.945 74.4582 182.503 74.8555C182.238 75.1204 181.84 75.4295 181.53 75.6502C180.867 76.1358 180.248 76.4007 179.805 76.489C178.965 76.5773 178.523 76.0034 178.434 75.297C178.434 75.1645 178.434 74.8114 178.434 74.6348C178.523 73.8842 178.788 72.8246 179.275 71.5001C179.452 71.0586 179.673 70.5288 179.938 69.9549C179.407 69.999 178.921 70.0873 178.434 70.1756C177.683 70.3522 177.594 70.3522 177.462 70.3081C176.975 70.2198 176.754 69.3809 177.285 69.2485" fill="#4241FF"></path><path d="M182.105 75.694C182.238 75.1201 182.945 73.2216 183.255 72.2945C183.741 70.97 184.361 69.7779 184.847 68.4093C185.157 67.7029 185.289 67.3497 185.422 67.1731C185.555 66.9965 185.687 66.9082 185.908 66.9082C186.306 66.9082 186.66 67.3939 186.395 67.7912C186.306 67.8795 186.174 68.1885 185.997 68.6742C185.555 69.7779 185.068 70.8817 184.537 72.162C185.024 71.7205 185.687 71.1907 186.351 71.0583C187.058 70.9258 187.5 71.279 187.633 71.853C187.722 72.2062 187.722 72.6477 187.589 73.4424C187.5 73.9722 187.456 74.1929 187.456 74.6786C187.456 75.1642 187.456 74.9435 187.456 75.0759C187.633 75.0759 187.766 74.9876 188.031 74.7669C188.606 74.3254 189.49 73.3541 190.021 72.736C190.331 72.3828 190.596 72.1179 190.684 72.0737C191.082 71.853 191.48 72.0737 191.569 72.4269C191.569 72.5152 191.569 72.6477 191.569 72.736C191.525 72.9126 191.171 73.2658 190.994 73.4424C190.419 74.0605 190.286 74.2371 189.756 74.7669C189.623 74.8993 189.137 75.385 189.048 75.4733C188.562 75.9148 188.164 76.1355 187.854 76.2238C187.324 76.3563 186.926 76.2238 186.66 75.9148C186.395 75.6499 186.306 75.2967 186.306 74.7227C186.306 74.3254 186.306 74.1929 186.439 73.2658C186.483 72.8684 186.528 72.6477 186.528 72.4711C186.528 72.3828 186.528 72.2945 186.528 72.2945C186.528 72.2945 186.218 72.4269 186.041 72.5152C185.112 73.1333 184.316 74.1488 183.697 75.2084C183.476 75.5616 183.388 75.8706 183.122 76.2238C183.034 76.3563 182.813 76.4887 182.592 76.4446C182.326 76.4004 182.017 76.1355 182.105 75.7382" fill="#4241FF"></path><path d="M192.807 68.8494C192.454 68.8053 192.232 69.026 192.056 69.2909C191.702 69.8649 191.613 69.9973 191.613 70.218C191.613 70.4388 191.746 70.6595 191.967 70.7478C192.011 70.7478 192.144 70.792 192.232 70.792C192.763 70.792 192.852 70.1297 193.117 69.8648C193.471 69.5116 193.25 68.9377 192.807 68.8935" fill="#4241FF"></path><path d="M200.856 72.1626C200.723 72.1626 200.679 72.1626 200.546 72.2509C200.413 72.295 200.325 72.3392 199.617 72.6041C198.556 72.9573 197.981 73.178 197.097 73.5312L196.92 73.6195V73.3988C196.92 72.6482 197.052 72.1184 197.406 71.7211C197.627 71.4562 197.937 71.1913 198.291 71.103C198.423 71.103 198.512 71.0147 198.556 70.9705C198.689 70.8381 198.777 70.6615 198.733 70.4407C198.733 70.3083 198.689 70.22 198.6 70.1317C198.468 69.9992 198.291 69.9551 198.202 69.9551C198.202 69.9551 198.158 69.9551 198.114 69.9551C197.76 69.9551 197.45 69.9992 197.141 70.1317C196.654 70.3083 195.947 70.5732 195.239 71.0588C194.576 71.5003 194.09 71.986 193.78 72.3833C193.692 72.4275 193.647 72.5158 193.603 72.5599C193.072 73.2222 192.232 74.2818 191.259 75.0323C191.082 75.1648 190.861 75.2089 190.817 75.2089C190.817 75.2089 190.817 75.1648 190.817 74.9882C190.817 74.8116 190.817 74.6791 190.906 74.3701C191.215 73.3105 191.259 73.3546 191.79 72.2067C192.011 71.8094 191.79 71.3679 191.392 71.3237C191.082 71.2796 190.861 71.4562 190.773 71.6769C190.242 72.6924 189.623 73.7961 189.667 75.2531C189.712 75.6504 189.888 75.9595 190.198 76.1802C190.861 76.5776 191.569 76.2685 192.1 75.9153C192.498 75.6504 192.984 75.1648 193.692 74.3701C194.09 73.8844 194.399 73.5754 194.576 73.3105C194.841 72.9573 195.284 72.4275 195.947 71.986C195.903 72.1626 195.858 72.3833 195.814 72.5599C195.814 72.8248 195.77 73.0456 195.77 73.6195C195.77 73.8844 195.77 74.1493 195.77 74.1493C195.77 74.1493 195.77 74.1493 195.682 74.1935C194.974 74.5467 194.266 75.0323 193.78 75.518C193.294 76.0036 192.896 76.5334 192.763 77.284C192.63 78.0345 193.072 78.5201 193.647 78.6084C194.001 78.6084 194.222 78.5643 194.488 78.4319C194.886 78.2553 195.284 77.9903 195.637 77.593C196.301 76.9308 196.743 76.0919 196.876 74.9882V74.944C197.804 74.5025 198.644 74.2376 199.927 73.7961C200.281 73.6637 201.077 73.4429 201.298 73.178C201.519 72.8248 201.298 72.295 200.811 72.295M195.46 75.9595C195.151 76.5334 194.664 77.0191 194.134 77.284C194.045 77.284 194.001 77.3281 194.001 77.3281C194.045 77.1515 194.178 76.9308 194.311 76.71C194.62 76.2685 195.107 75.9153 195.593 75.6063C195.593 75.6063 195.505 75.827 195.416 76.0036" fill="#4241FF"></path><path d="M201.961 75.5626C202.094 75.1652 202.271 74.6354 202.713 74.5913C203.111 74.5913 203.509 75.0328 203.243 75.4743C203.243 75.4743 203.111 75.7833 203.022 75.9599C202.978 76.1365 202.801 76.269 202.624 76.3131C202.138 76.4456 201.784 75.9599 201.917 75.5626M202.624 73.2668C202.624 73.1343 202.713 73.046 202.713 72.9136C202.934 72.163 203.641 70.2204 204.128 68.9842C204.305 68.4986 204.659 67.6597 204.747 67.439C204.835 67.2183 204.968 67.0858 205.145 67.0417C205.587 66.9534 206.029 67.3507 205.808 67.8364C205.233 69.3816 204.128 72.0747 203.686 73.5317C203.641 73.7524 203.509 73.8849 203.332 73.9732C202.845 74.1939 202.403 73.7524 202.536 73.2668" fill="#4241FF"></path><path d="M60.2282 62.316C57.6633 62.316 55.3638 61.8745 53.3295 61.0357C51.3395 60.1527 49.7475 58.9165 48.5977 57.2388C47.4479 55.5611 46.873 53.4861 46.873 51.0578C46.873 48.6296 47.3595 46.9077 48.3766 45.23C49.3937 43.5523 50.8973 42.2278 52.8431 41.2565C54.7889 40.2852 57.2653 39.8438 60.1398 39.8438C63.0143 39.8438 65.0485 40.2852 67.0385 41.1241C69.0285 42.0071 70.5763 43.2433 71.7261 44.921C72.8759 46.5987 73.4508 48.6296 73.4508 51.0578C73.4508 53.4861 72.9643 55.2079 71.9472 56.9297C70.9301 58.6516 69.4265 59.9761 67.4807 60.9032C65.4907 61.8745 63.0585 62.316 60.184 62.316M60.2282 52.9563C60.8031 52.9563 61.2896 52.7797 61.6876 52.4265C62.0414 52.0733 62.2625 51.6318 62.2625 51.0578C62.2625 50.4839 62.0856 49.9982 61.6876 49.645C61.3338 49.2918 60.8474 49.1152 60.2282 49.1152C59.6091 49.1152 59.0785 49.2918 58.7247 49.645C58.3709 49.9982 58.194 50.4839 58.194 51.0578C58.194 51.6318 58.3709 52.0733 58.7247 52.4265C59.0785 52.7797 59.5649 52.9563 60.2282 52.9563Z" fill="#4241FF"></path><path d="M143.145 62.4036V39.843C143.72 40.3728 144.56 40.8143 145.577 41.0792C146.594 41.3882 147.788 41.5207 149.115 41.5207C150.442 41.5207 151.68 41.3882 152.697 41.035C153.714 40.726 154.51 40.3286 155.041 39.7988V62.3594H143.101L143.145 62.4036Z" fill="#4241FF"></path><path d="M150.353 35.8268C149.778 35.9151 149.336 35.9151 148.938 35.8268C148.54 35.7385 148.319 35.5177 148.275 35.2087C148.231 34.9438 148.363 34.6789 148.673 34.4581C148.982 34.2374 149.425 34.0608 150.044 33.9725C150.619 33.8842 151.105 33.8842 151.459 33.9725C151.813 34.0608 152.034 34.2815 152.078 34.5906C152.122 34.8555 151.99 35.1204 151.68 35.3411C151.37 35.5619 150.928 35.7385 150.309 35.8268" fill="#4241FF"></path><path d="M151.503 31.5431C151.238 32.0729 150.972 31.7197 150.663 31.8963C150.53 31.9846 150.265 32.2936 150.221 32.4702C149.999 32.5585 149.027 31.3665 148.85 31.1016C148.452 30.4393 148.319 29.6005 148.54 28.8499C148.629 28.4967 148.805 28.0994 149.071 27.8345C149.292 27.5696 149.513 27.6137 149.823 27.4813C150.176 27.3047 150.397 26.9073 150.751 26.6866C151.149 26.4658 151.636 26.4658 152.078 26.5541C152.52 26.6424 153.007 26.7307 153.449 26.6424C154.024 26.51 154.289 26.1568 154.952 26.3775C155.881 26.6866 156.058 28.4967 155.925 29.2914C155.616 30.925 154.643 32.5585 153.228 33.4857C153.007 33.6181 152.697 33.8389 152.785 33.4415C152.918 32.6468 153.139 31.8521 153.316 31.0574C153.228 30.7925 153.051 31.4548 153.007 31.4989C152.874 31.7638 152.653 32.3378 152.476 32.5144C152.122 32.8676 151.68 32.5144 151.724 32.0729L151.901 29.9978C151.724 30.4393 151.636 31.1016 151.459 31.5431" fill="#FF6728"></path><path d="M147.744 27.3062C147.921 27.4386 148.053 27.5711 148.142 27.7477C147.434 28.0567 147.39 29.5137 147.478 30.1759C147.611 31.0589 148.142 31.8536 148.761 32.4717V32.6483C148.761 32.8249 148.274 33.0457 148.142 33.1781C148.053 33.2664 148.009 33.5313 147.965 33.5313C147.744 33.6637 146.196 32.0744 145.709 32.2068L147.213 33.2664C148.142 34.0169 147.523 33.7079 147.213 34.1494C147.125 34.2818 147.08 34.5909 147.036 34.5909C146.992 34.5909 146.196 34.2377 145.886 34.1935C145.488 34.1494 145.046 34.326 144.737 34.1935C144.029 34.0169 142.614 32.2068 142.216 31.5887C141.464 30.3525 141.022 28.3216 142.26 27.1737C143.1 26.4232 143.675 26.953 144.515 26.8647C145.4 26.8205 145.444 26.1583 146.55 26.6439C146.903 26.7764 147.39 26.9971 147.699 27.3062" fill="#FF6728"></path><path d="M147.832 36.1359C147.832 36.6215 147.257 36.3125 147.036 36.4449C146.594 36.754 147.965 37.5487 148.142 37.7253C148.186 37.7694 148.319 37.7694 148.23 37.9019C147.965 38.2992 145.842 38.3434 145.356 38.2992C143.543 38.0343 140.757 36.6657 139.872 35.1204C139.872 35.1204 139.474 34.7231 139.74 34.7672C140.005 34.7672 139.961 35.1204 140.27 35.2087C140.668 35.297 141.464 35.1646 141.951 35.2087C142.658 35.297 143.277 35.6944 144.029 35.6061L142.924 35.2087C142.526 35.1646 142.128 34.988 141.73 34.9438C141.332 34.8997 140.845 35.1646 140.536 35.0763C140.27 34.988 140.182 34.5906 139.828 34.5906C139.961 33.6193 140.713 33.0895 141.553 32.7363C142.083 33.3103 142.481 34.0167 143.056 34.5023C143.322 34.6789 144.339 35.3853 144.56 35.3853C144.693 35.3853 144.914 35.1646 145.179 35.1646C146.063 35.1646 146.992 35.871 147.788 36.2242" fill="#FF6728"></path><path d="M158.49 31.1909C158.578 31.5882 158.578 32.0739 158.402 32.3829C158.357 32.5154 158.269 32.6037 158.225 32.692C157.871 33.3101 158.048 33.7516 158.048 34.3697C158.048 35.0319 157.782 35.6059 157.34 36.0474C156.323 37.1511 154.952 37.1069 153.67 36.4447C153.006 36.0915 152.918 36.0474 153.36 35.4293C153.493 35.2968 154.333 35.6059 154.554 35.2527C154.775 34.9878 154.156 35.2527 154.068 35.2527C153.67 35.2968 153.183 35.2527 153.404 34.767C153.449 34.6787 154.289 34.1931 154.51 34.0165C155.218 33.4425 155.881 32.6478 156.19 31.809C156.412 31.3233 156.544 30.043 157.252 30.043C157.871 30.043 158.269 30.5728 158.446 31.1909" fill="#FF6728"></path><path d="M154.599 35.3415C154.599 35.3415 154.732 35.1199 154.777 35.0312C154.688 35.0312 154.377 35.1642 154.466 35.2972C154.51 35.2972 154.599 35.3415 154.644 35.3415" fill="#FF6728"></path><path d="M155.35 37.7695C155.571 38.1668 153.979 38.6525 153.714 38.6966C152.122 39.0498 150.309 39.0057 149.026 37.9019C148.894 37.7695 148.275 37.1955 148.23 37.0631C148.23 36.9306 148.363 36.9748 148.407 36.9748C149.336 36.7982 151.105 36.4008 151.989 36.5774C152.432 36.6657 153.006 37.1514 153.493 37.328C154.112 37.5487 154.731 37.5487 155.35 37.7695Z" fill="#FF6728"></path><path d="M44.3961 38.739C43.5117 37.0171 42.3177 35.7368 40.7699 34.8538C39.2221 33.9708 37.4532 33.5293 35.5074 33.5293C32.4118 33.5293 30.0238 34.3681 28.3876 36.0458C26.7071 37.7235 25.69 39.9752 25.3805 42.7566H24.7614L24.4518 34.8096V33.9708L24.4076 33.5293H12.8213V62.4033H24.7614V47.1275H25.3805C25.7343 49.953 26.7071 52.2047 28.3876 53.8382C30.0681 55.4718 32.4561 56.3106 35.5074 56.3106C38.5588 56.3106 39.2221 55.8691 40.7699 54.9861C42.3177 54.1031 43.5117 52.8228 44.3961 51.1451C45.2806 49.4674 45.6786 47.3924 45.6786 44.92C45.6786 42.4476 45.2364 40.4167 44.3961 38.6948M30.2449 46.3769C29.8912 46.7743 29.3605 46.9509 28.6972 46.9509C28.0338 46.9509 27.5916 46.7743 27.1936 46.4211C26.7956 46.0679 26.6187 45.5822 26.6187 44.9641C26.6187 44.346 26.7956 43.8604 27.1936 43.5072C27.5916 43.154 28.078 42.9774 28.6972 42.9774C29.3163 42.9774 29.8469 43.154 30.2449 43.5513C30.643 43.9487 30.8198 44.4343 30.8198 45.0083C30.8198 45.5822 30.643 46.0679 30.2449 46.4652" fill="#4241FF"></path><path d="M168.307 44.6559C167.998 45.0091 166.583 46.3777 166.671 48.4086C166.804 50.6603 168.705 52.6029 170.253 52.6912C170.607 52.6912 170.916 52.647 171.005 52.6029C171.978 52.3821 172.995 51.5874 173.039 50.7486C173.039 50.7044 173.039 50.6161 173.039 50.572C172.641 50.7927 172.155 50.9252 171.668 50.9252C170.209 50.9252 168.971 49.7331 168.971 48.2762C168.971 46.8192 169.324 46.7309 169.899 46.2453C170.474 45.8038 171.049 45.4506 171.757 45.1857C172.774 44.7442 174.012 44.5234 175.56 44.5234C177.108 44.5234 178.965 44.8766 180.38 45.583C181.839 46.2894 182.989 47.2607 183.874 48.5411C184.714 49.8214 185.156 51.3667 185.156 53.1768C185.156 54.987 184.67 56.6205 183.697 57.9891C182.724 59.3578 181.309 60.4174 179.496 61.2121C177.682 61.9626 175.516 62.36 173.039 62.36C170.563 62.36 166.671 61.7419 164.195 60.5498C161.718 59.3136 159.772 57.6359 158.401 55.4284C157.031 53.221 156.367 50.7044 156.367 47.7464C156.367 44.7883 157.075 42.2718 158.534 40.1084C159.993 37.9451 161.983 36.3116 164.504 35.1195C167.025 33.9275 169.943 33.3535 173.304 33.3535C176.665 33.3535 177.506 33.6184 179.496 34.1482C180.424 34.4131 181.22 34.678 182.016 34.9871C182.503 35.2078 182.945 35.4286 183.476 35.6935C183.652 35.7818 183.829 35.8701 184.006 35.9584C184.404 36.1791 184.802 36.3999 185.2 36.6206V43.2872L184.404 43.8612L183.785 44.3027C182.812 43.6404 181.707 43.1548 180.336 42.8016C179.009 42.4484 177.638 42.2718 176.312 42.2718C174.985 42.2718 173.128 42.2718 171.182 42.934C170.165 43.2872 169.192 43.6404 168.307 44.5234" fill="#4241FF"></path><path d="M199.75 62.3602C197.185 62.3602 194.885 61.9187 192.851 61.0798C190.861 60.1968 189.269 58.9606 188.119 57.2829C186.969 55.6052 186.395 53.5302 186.395 51.102C186.395 48.6737 186.881 46.9519 187.898 45.23C188.915 43.5523 190.419 42.2278 192.365 41.2565C194.355 40.2852 196.787 39.8438 199.661 39.8438C202.536 39.8438 204.57 40.2852 206.56 41.1241C208.55 42.0071 210.098 43.2433 211.248 44.921C212.397 46.5987 212.972 48.6296 212.972 51.102C212.972 53.5744 212.486 55.2962 211.469 56.9739C210.452 58.6957 208.948 60.0202 207.002 60.9474C205.012 61.9187 202.58 62.3602 199.705 62.3602M199.75 52.9563C200.325 52.9563 200.811 52.7797 201.209 52.4265C201.563 52.0733 201.784 51.6318 201.784 51.0137C201.784 50.3956 201.607 49.9541 201.209 49.6009C200.855 49.2477 200.369 49.0711 199.75 49.0711C199.131 49.0711 198.6 49.2477 198.246 49.6009C197.892 49.9541 197.715 50.4397 197.715 51.0137C197.715 51.5876 197.892 52.0291 198.246 52.3823C198.6 52.7355 199.086 52.9121 199.75 52.9121" fill="#4241FF"></path><path d="M106.396 44.8327C105.511 43.1109 104.317 41.8305 102.77 40.9475C101.222 40.0645 99.4529 39.623 97.5072 39.623C94.4116 39.623 92.0678 40.4619 90.3873 42.1396C88.7069 43.8173 87.6898 46.0689 87.3802 48.8504H86.7611L86.4515 40.7268C86.4515 40.6826 86.4515 40.6385 86.4515 40.5943C86.4515 40.3294 86.4515 40.0645 86.4515 39.8438H74.8652V66.8635H86.8053V53.2654H87.4244C87.7782 56.0909 88.7511 58.3426 90.4316 59.9761C92.112 61.6097 94.5 62.4485 97.5514 62.4485C100.603 62.4485 101.266 62.007 102.814 61.124C104.362 60.241 105.556 58.9607 106.44 57.283C107.325 55.6053 107.723 53.5303 107.723 51.0579C107.723 48.5855 107.28 46.5546 106.44 44.8327M92.2447 52.5148C91.8467 52.9122 91.3602 53.0887 90.6969 53.0887C90.0335 53.0887 89.5913 52.9122 89.1933 52.559C88.7953 52.2058 88.6184 51.7201 88.6184 51.102C88.6184 50.4839 88.7953 49.9983 89.1933 49.6451C89.5913 49.2919 90.0778 49.1153 90.6969 49.1153C91.316 49.1153 91.8467 49.2919 92.2447 49.6892C92.5984 50.0866 92.8196 50.5281 92.8196 51.1462C92.8196 51.7643 92.6427 52.2058 92.2447 52.6031" fill="#4241FF"></path><path d="M140.536 44.8327C139.652 43.1109 138.458 41.8305 136.91 40.9475C135.362 40.0645 133.594 39.623 131.648 39.623C128.552 39.623 126.208 40.4619 124.528 42.1396C122.847 43.8173 121.83 46.0689 121.521 48.8504H120.902L120.592 40.7268C120.592 40.6826 120.592 40.6385 120.592 40.5943C120.592 40.3294 120.592 40.0645 120.592 39.8438H109.006V66.8635H120.946V53.2654H121.565C121.919 56.0909 122.892 58.3426 124.572 59.9761C126.253 61.6097 128.641 62.4485 131.692 62.4485C134.743 62.4485 135.407 62.007 136.954 61.124C138.502 60.241 139.696 58.9607 140.581 57.283C141.465 55.6053 141.863 53.5303 141.863 51.0579C141.863 48.5855 141.421 46.5546 140.581 44.8327M126.385 52.5148C125.987 52.9122 125.501 53.0887 124.838 53.0887C124.174 53.0887 123.732 52.9122 123.334 52.559C122.936 52.2058 122.759 51.7201 122.759 51.102C122.759 50.4839 122.936 49.9983 123.334 49.6451C123.732 49.2919 124.218 49.1153 124.838 49.1153C125.457 49.1153 125.987 49.2919 126.385 49.6892C126.739 50.0866 126.96 50.5281 126.96 51.1462C126.96 51.7643 126.783 52.2058 126.385 52.6031" fill="#4241FF"></path></svg>